<svg xmlns="http://www.w3.org/2000/svg" width="566.69" height="207.56" viewBox="0 0 566.69 207.56"><defs><style>.cls-1,.cls-2{fill:#fff;}.cls-1{fill-rule:evenodd;}</style></defs><title>Tesuto Logo White</title><g id="Layer_2" data-name="Layer 2"><g id="Layer_1-2" data-name="Layer 1"><path class="cls-1" d="M514.3,67.22q0-20.9,0-41.81A25.53,25.53,0,0,1,539.65,0C549-.06,556.54,3.47,562.1,11c3.36,4.56,4.57,9.82,4.57,15.37q0,40.81,0,81.63c0,15.44-10.51,23.94-21,26-14.07,2.79-28-6-30.79-19.5a27.06,27.06,0,0,1-.57-5.32C514.28,95.23,514.3,81.23,514.3,67.22Zm10.53.19q0,20.81,0,41.62a14.6,14.6,0,0,0,2.39,8.29,15.89,15.89,0,0,0,17.61,6.52,15.34,15.34,0,0,0,11.31-15.09q0-14.14,0-28.27,0-27.38,0-54.76A14.54,14.54,0,0,0,551,14.09c-5.15-4.35-11-5.26-17.1-2.51s-9.1,7.78-9.06,14.61C524.87,39.94,524.82,53.67,524.83,67.41Z"/><path class="cls-1" d="M307.76,1.16h10.45V3.85c0,34.66.05,69.32,0,104a15.6,15.6,0,0,0,11,14.93c9.68,2.94,20.29-3.67,20.39-14.73,0-.73,0-1.46,0-2.19V1.16H360s.06,72.92-.09,108.5c0,7.84-3.88,14.11-10.15,18.75-13.71,10.13-34.81,5-40.7-12.21a22.87,22.87,0,0,1-1.21-7.21q-.11-52.88-.05-105.77Z"/><path class="cls-1" d="M255.8,41.47l-10.44,1.14V40.45c0-5-.11-10,0-14.94.21-7.93-6.54-15.51-15.89-15.39-9.12.12-15.86,7.79-15.38,15.69.15,2.51.08,5,0,7.57A14.83,14.83,0,0,0,218,43.78C227.88,55.2,237.8,66.63,247.83,78c4.26,4.81,7.21,10.15,7.93,16.58a49.74,49.74,0,0,1,.18,6c0,3.85.23,7.74-.27,11.53-1.48,11.25-8.06,18.39-18.81,21.53a26,26,0,0,1-31.72-15.83,25.73,25.73,0,0,1-1.46-7.77c-.21-6.23-.07-12.48-.06-18.72a10.46,10.46,0,0,1,.14-1.08l10.39-1.11v2.38c0,5.91.13,11.82,0,17.72-.2,7.2,5.68,14.42,14.21,15.22,7.36.69,15.7-4.05,16.91-13.18a73.81,73.81,0,0,0,.11-10.94,40.21,40.21,0,0,0-.53-7.1A15.59,15.59,0,0,0,241,86Q225.9,68.81,210.83,51.57a27.17,27.17,0,0,1-7.23-19.26c.09-3,0-6.1.17-9.15.41-9.93,8.29-20.09,20.34-22.58,11.35-2.35,22.84,2.59,28.44,12.21a24.14,24.14,0,0,1,3.37,11.73c.12,5.31,0,10.62,0,15.93A8.69,8.69,0,0,1,255.8,41.47Z"/><path class="cls-1" d="M104.9,2H148V12h-32.7V62h23.95V72.46H115.35v50h34.26v10.08H104.9Z"/><path class="cls-1" d="M29.49,132.57H18.81V12.1H0V2H47.91v10H29.49Z"/><path class="cls-1" d="M432.23,12H413.48V2h48V12H442.92V132.52H432.23Z"/><path class="cls-2" d="M438.85,166.87V148.7h-4.37v18.17a10.65,10.65,0,0,0-8.21,8.21h-185a10.65,10.65,0,0,0-8.21-8.21V148.7h-4.36v18.17a10.65,10.65,0,0,0-8.21,8.21h-83.7a10.64,10.64,0,0,0-8.21-8.21V148.7h-4.36v18.17a10.65,10.65,0,0,0-8.21,8.21H33.27a10.65,10.65,0,0,0-8.21-8.21V148.7H20.7v18.17a10.62,10.62,0,1,0,12.57,12.57h82.78a10.62,10.62,0,0,0,20.78,0h83.7a10.65,10.65,0,0,0,8.21,8.21v19.9h4.36v-19.9a10.65,10.65,0,0,0,8.21-8.21h185a10.62,10.62,0,1,0,12.58-12.57Zm-416,16.65a6.26,6.26,0,1,1,6.26-6.26A6.26,6.26,0,0,1,22.88,183.52Zm103.57,0a6.26,6.26,0,1,1,6.26-6.26A6.26,6.26,0,0,1,126.44,183.52Zm104.48,0a6.26,6.26,0,1,1,6.26-6.26A6.26,6.26,0,0,1,230.93,183.52Zm205.74,0a6.26,6.26,0,1,1,6.26-6.26A6.26,6.26,0,0,1,436.66,183.52Z"/></g></g></svg>